<svg viewBox="0 0 22.575 22.576" xmlns="http://www.w3.org/2000/svg"><g data-name="Layer 2" id="Layer_2"><g data-name="Layer 1" id="Layer_1-2"><path d="M21.321,3.192a.342.342,0,0,0,0,.684.571.571,0,0,1,.57.571V16.418h-2.28V.342A.342.342,0,0,0,19.269,0H3.306a.342.342,0,0,0-.342.342V16.418H.684V4.447a.571.571,0,0,1,.57-.571.342.342,0,0,0,0-.684A1.256,1.256,0,0,0,0,4.447V18.585a1.255,1.255,0,0,0,1.254,1.254H6.841v2.052h-2.4a.342.342,0,0,0,0,.684H18.129a.342.342,0,0,0,0-.684H15.734V19.839h5.587a1.255,1.255,0,0,0,1.254-1.254V4.447A1.256,1.256,0,0,0,21.321,3.192ZM3.648.684H18.927V3.192H3.648Zm0,3.192H18.927V7.762L16.794,9.5l-2.247-.754a.34.34,0,0,0-.337.069l-2.652,2.367L8.947,10.6a26.659,26.659,0,0,0-2.914,1.38l-2.385-.367ZM18.927,8.645v7.773H17.206V10.047ZM16.522,10.13v6.288H14.78V9.546Zm-2.426-.3v6.584H12v-4.71Zm-2.783,2v4.589h-2.1V11.361Zm-2.783-.34v4.929h-2.1V12.546Zm-4.882.817,2.1.323v3.789h-2.1Zm11.4,9.585H7.525V19.839H15.05Zm6.841-3.306a.57.57,0,0,1-.57.57H1.254a.571.571,0,0,1-.57-.57V17.1H21.891ZM13.582,1.7c.32.3-.176.8-.483.484S13.271,1.39,13.582,1.7Zm1.925.242a.342.342,0,0,1-.684,0A.342.342,0,0,1,15.507,1.94Zm1.724-.247c.316.31-.174.807-.484.489A.344.344,0,0,1,17.231,1.693ZM11.362,5.815a.342.342,0,0,1,.342-.342h2.734a.342.342,0,0,1,0,.684H11.7A.342.342,0,0,1,11.362,5.815Zm-6.117,0a.342.342,0,0,1,.342-.342H9.88a.342.342,0,0,1,0,.684H5.587A.342.342,0,0,1,5.245,5.815Zm6.8,2.281a.342.342,0,0,1-.342.342H9.426a.342.342,0,0,1,0-.684H11.7A.342.342,0,0,1,12.043,8.1ZM7.6,8.438H5.587a.342.342,0,0,1,0-.684H7.6A.342.342,0,0,1,7.6,8.438Z" data-name="traffic monitoring" id="traffic_monitoring"/></g></g></svg>